<?xml version="1.0" standalone="no"?>
<!-- Generator: Adobe Fireworks 10, Export SVG Extension by Aaron Beall (http://fireworks.abeall.com) . Version: 0.6.1  -->
<!DOCTYPE svg PUBLIC "-//W3C//DTD SVG 1.1//EN" "http://www.w3.org/Graphics/SVG/1.1/DTD/svg11.dtd">
<svg id="source.fw-Page%201" viewBox="0 0 772 324" style="background-color:#ffffff00" version="1.1"
	xmlns="http://www.w3.org/2000/svg" xmlns:xlink="http://www.w3.org/1999/xlink" xml:space="preserve"
	x="0px" y="0px" width="772px" height="324px"
>
	<g id="Layer%201">
		<path d="M 37.1837 186.1986 C 38.5581 178.8193 43.5055 178.1323 47.9377 178.1323 C 52.3699 178.1323 54.7605 179.6338 57.4879 186.1986 C 65.5106 233.3394 104.2511 269.9474 152.2665 274.463 C 157.0386 275.3082 161.2861 280.6461 160.6842 285.4867 C 159.6716 293.629 147.0707 294.7021 145.7058 294.0032 C 89.6546 286.6204 45.1718 242.3306 37.1837 186.1986 ZM 641.8094 295.0923 C 641.8094 288.41 647.199 282.9929 653.8474 282.9929 C 660.4958 282.9929 665.8854 288.41 665.8854 295.0923 C 665.8854 301.7745 660.4958 307.1915 653.8474 307.1915 C 647.199 307.1915 641.8094 301.7745 641.8094 295.0923 ZM 426.4432 226.5297 L 402.0538 226.5297 L 402.0538 97.4706 L 455.2214 97.4706 C 460.9895 97.4706 466.3188 98.731 471.2093 101.1885 C 476.0997 103.646 480.3004 106.8601 483.8115 110.8929 C 487.3225 114.9263 490.0812 119.5266 492.0876 124.6307 C 494.0939 129.798 495.097 134.9027 495.097 140.0699 C 495.097 145.4895 494.1566 150.7828 492.2757 155.8875 C 490.3947 160.9917 487.6987 165.5289 484.313 169.499 C 480.9273 173.469 476.7893 176.6831 471.9616 179.0776 C 467.1339 181.4723 461.8673 182.6696 456.0991 182.6696 L 426.4432 182.6696 L 426.4432 226.5297 ZM 345.5632 221.2361 C 338.2903 224.765 330.3277 226.5297 321.7382 226.5297 C 312.8978 226.5297 304.8098 224.702 297.5369 221.047 C 290.2639 217.3921 283.9942 212.6028 278.7277 206.5531 C 273.461 200.5034 269.4484 193.6346 266.627 185.8206 C 263.8056 178.0693 262.4262 170.1293 262.4262 162 C 262.4262 153.5558 263.931 145.4264 266.9405 137.6123 C 269.95 129.8613 274.088 122.9926 279.48 117.0057 C 284.8093 111.0822 291.1418 106.293 298.4147 102.7639 C 305.6876 99.2347 313.6502 97.4706 322.3024 97.4706 C 331.0801 97.4706 339.1681 99.361 346.441 103.142 C 353.7139 106.9231 359.9837 111.8381 365.1876 117.8881 C 370.3288 124.0006 374.3414 130.9325 377.1628 138.6837 C 379.9842 146.4978 381.4262 154.3748 381.4262 162.3781 C 381.4262 170.8854 379.9214 179.0146 376.912 186.7026 C 373.9025 194.3909 369.7018 201.1968 364.4352 207.1202 C 359.1686 213.0439 352.8362 217.7072 345.5632 221.2361 ZM 185.6844 226.5297 L 161.295 226.5297 L 161.295 97.4706 L 214.4625 97.4706 C 220.2308 97.4706 225.56 98.731 230.4504 101.1885 C 235.3409 103.646 239.5416 106.8601 243.0526 110.8929 C 246.5638 114.9263 249.3224 119.5266 251.3287 124.6307 C 253.3351 129.798 254.3382 134.9027 254.3382 140.0699 C 254.3382 145.4895 253.3978 150.7828 251.5168 155.8875 C 249.6359 160.9917 246.9399 165.5289 243.5543 169.499 C 240.1686 173.469 236.0305 176.6831 231.2028 179.0776 C 226.3751 181.4723 221.1085 182.6696 215.3404 182.6696 L 185.6844 182.6696 L 185.6844 226.5297 ZM 689.193 0.676 L 553.8344 0.676 L 168.109 0.676 L 160.1399 0.676 C 72.1137 0.676 0.7563 72.9022 0.7563 162 C 0.7563 251.0978 72.1137 323.3239 160.1399 323.3239 L 168.109 323.3239 L 769.2438 323.3239 L 769.2438 278.6198 L 769.2438 81.3381 L 769.2438 80.3662 L 742.075 80.3662 L 742.075 265.0142 L 561.5969 265.0142 L 561.5969 27.8874 L 689.6781 27.8874 L 689.6781 0.676 L 689.193 0.676 ZM 426.4432 118.14 L 426.4432 162 L 454.7198 162 C 459.1713 162 462.8704 160.0464 465.8799 156.0765 C 468.8894 152.1691 470.3941 146.8127 470.3941 140.0699 C 470.3941 136.6671 469.8926 133.5791 468.9521 130.8065 C 468.0117 128.0967 466.7578 125.765 465.253 123.8745 C 463.7482 121.984 461.93 120.5347 459.8609 119.5894 C 457.7919 118.6442 455.7229 118.14 453.6539 118.14 L 426.4432 118.14 ZM 289.2608 145.9307 C 287.6934 151.224 286.941 156.5175 286.941 161.9369 C 286.941 167.6085 287.6934 173.028 289.3235 178.3213 C 290.8909 183.615 293.2108 188.3412 296.2203 192.3741 C 299.2297 196.4703 302.8661 199.7473 307.255 202.2051 C 311.5812 204.6626 316.5343 205.8599 322.1144 205.8599 C 327.7571 205.8599 332.7103 204.5996 336.9737 202.0787 C 341.2371 199.5582 344.8736 196.2184 347.8204 192.0591 C 350.7672 187.9 353.0242 183.1736 354.529 177.8804 C 356.0338 172.6499 356.8488 167.3564 356.8488 161.9369 C 356.8488 156.2653 356.0338 150.7828 354.4036 145.4895 C 352.7735 140.196 350.4536 135.5327 347.4442 131.4366 C 344.4347 127.4037 340.7355 124.1267 336.4721 121.7321 C 332.146 119.3374 327.3182 118.14 321.9263 118.14 C 316.2835 118.14 311.2677 119.4003 307.0042 121.921 C 302.6781 124.4417 299.0416 127.7816 296.0322 131.8777 C 293.0226 136.037 290.7656 140.7002 289.2608 145.9307 ZM 185.6844 118.14 L 185.6844 162 L 213.961 162 C 218.4125 162 222.1117 160.0464 225.1212 156.0765 C 228.1306 152.1691 229.6354 146.8127 229.6354 140.0699 C 229.6354 136.6671 229.1338 133.5791 228.1933 130.8065 C 227.2529 128.0967 225.9989 125.765 224.4942 123.8745 C 222.9894 121.984 221.1712 120.5347 219.1022 119.5894 C 217.0332 118.6442 214.9641 118.14 212.8952 118.14 L 185.6844 118.14 Z" fill="#fb4d48"/>
		<path d="M 645.049 161.3361 L 645.049 161.3361 ZM 641.7697 155.1414 L 645.3652 161.3418 L 647.3899 164.8391 L 661.0206 185.2307 L 666.9438 194.0894 L 644.7062 226.5297 L 660.8513 226.5297 L 674.2926 206.2744 L 675.3589 204.1586 L 676.4252 206.2744 L 689.8667 226.5297 L 706.0117 226.5297 L 683.8887 194.0894 L 705.6689 161.3361 L 689.5238 161.3361 L 676.4252 181.7877 L 675.9848 182.7139 L 657.9149 151.8506 C 662.4841 149.8131 666.14 146.4832 668.8434 141.86 C 671.5089 137.2369 672.8796 132.1042 672.8796 126.4235 C 672.8796 122.9365 672.1943 119.4496 670.8997 115.9628 C 669.5668 112.4758 667.7391 109.3414 665.3784 106.599 C 663.0177 103.8567 660.2375 101.6625 657.0012 99.9779 C 653.7647 98.3324 650.2614 97.4706 646.4537 97.4706 L 609.7083 97.4706 L 609.7083 185.2307 L 625.8533 185.2307 L 625.8533 155.1414 L 641.7697 155.1414 ZM 625.8533 111.3789 L 645.3872 111.3789 C 646.7961 111.3789 648.1667 111.7705 649.5379 112.4758 C 650.9085 113.2202 652.0889 114.278 653.1552 115.6101 C 654.2213 116.9421 655.0591 118.5486 655.6683 120.3508 C 656.278 122.1531 656.6202 124.1509 656.6202 126.3058 C 656.6202 128.4215 656.3156 130.3805 655.7824 132.1827 C 655.2495 133.9849 654.488 135.5521 653.574 136.8843 C 652.6222 138.2163 651.5181 139.274 650.2231 140.0576 C 648.9285 140.8413 647.5579 141.233 646.1107 141.233 L 625.8533 141.233 L 625.8533 111.3789 Z" fill="#444444"/>
		<path d="M 705.2031 0.676 L 771.1844 66.7606 L 705.2031 66.7606 L 705.2031 0.676 Z" fill="#444444"/>
	</g>
</svg>